<svg xmlns="http://www.w3.org/2000/svg" xmlns:xlink="http://www.w3.org/1999/xlink" width="500" zoomAndPan="magnify" viewBox="0 0 375 374.999991" height="500" preserveAspectRatio="xMidYMid meet" version="1.0"><defs><g/><clipPath id="id1"><path d="M 128.046875 81.230469 L 247.296875 81.230469 L 247.296875 231.230469 L 128.046875 231.230469 Z M 128.046875 81.230469 " clip-rule="nonzero"/></clipPath></defs><path fill="#6f9dd4" d="M 228.402344 148.746094 C 228.402344 146.53125 226.601562 144.738281 224.382812 144.738281 L 150.953125 144.738281 C 148.730469 144.738281 146.929688 146.53125 146.929688 148.746094 L 146.929688 178.222656 L 228.402344 178.222656 Z M 228.402344 122.695312 C 228.402344 116.144531 223.078125 110.835938 216.507812 110.835938 L 158.824219 110.835938 C 152.257812 110.835938 146.929688 116.144531 146.929688 122.695312 L 146.929688 117.648438 C 146.929688 111.097656 152.253906 105.789062 158.824219 105.789062 L 216.507812 105.789062 C 223.078125 105.789062 228.402344 111.097656 228.402344 117.648438 L 228.402344 122.695312 " fill-opacity="1" fill-rule="nonzero"/><path fill="#58595b" d="M 186.8125 114.242188 L 158.824219 114.242188 C 152.253906 114.242188 146.929688 119.550781 146.929688 126.101562 L 146.929688 148.746094 C 146.929688 146.53125 148.730469 144.738281 150.953125 144.738281 L 186.8125 144.738281 L 186.8125 114.242188 " fill-opacity="1" fill-rule="nonzero"/><path fill="#58595b" d="M 216.507812 114.242188 L 189.707031 114.242188 L 189.707031 144.738281 L 224.382812 144.738281 C 226.601562 144.738281 228.402344 146.53125 228.402344 148.746094 L 228.402344 126.101562 C 228.402344 119.550781 223.078125 114.242188 216.507812 114.242188 " fill-opacity="1" fill-rule="nonzero"/><path fill="#3c3c3d" d="M 216.507812 114.242188 C 223.078125 114.242188 228.402344 119.550781 228.402344 126.101562 L 228.402344 122.695312 C 228.402344 116.144531 223.078125 110.835938 216.507812 110.835938 L 158.824219 110.835938 C 152.253906 110.835938 146.929688 116.144531 146.929688 122.695312 L 146.929688 126.101562 C 146.929688 119.550781 152.253906 114.242188 158.824219 114.242188 L 186.8125 114.242188 L 186.8125 144.738281 L 171.882812 144.738281 L 182.242188 130.664062 L 180.894531 129.679688 L 169.804688 144.738281 L 150.953125 144.738281 C 148.730469 144.738281 146.929688 146.53125 146.929688 148.746094 L 146.929688 151.882812 C 146.929688 149.667969 148.730469 147.871094 150.953125 147.871094 L 167.5 147.871094 L 166.238281 149.582031 L 167.589844 150.570312 L 169.574219 147.871094 L 206.679688 147.871094 L 208.664062 150.570312 L 210.011719 149.582031 L 208.753906 147.871094 L 224.382812 147.871094 C 226.601562 147.871094 228.402344 149.667969 228.402344 151.882812 L 228.402344 148.746094 C 228.402344 146.53125 226.601562 144.738281 224.382812 144.738281 L 206.445312 144.738281 L 195.359375 129.679688 L 194.007812 130.664062 L 204.371094 144.738281 L 189.707031 144.738281 L 189.707031 114.242188 Z M 228.402344 184.101562 L 223.804688 184.101562 L 223.804688 191.050781 C 223.804688 193.535156 221.78125 195.550781 219.285156 195.550781 L 216.964844 195.550781 C 214.472656 195.550781 212.449219 193.535156 212.449219 191.050781 L 212.449219 184.101562 L 163.421875 184.101562 L 163.421875 191.050781 C 163.421875 193.535156 161.402344 195.550781 158.90625 195.550781 L 156.585938 195.550781 C 154.089844 195.550781 152.070312 193.535156 152.070312 191.050781 L 152.070312 184.101562 L 146.929688 184.101562 L 146.929688 178.222656 L 228.402344 178.222656 L 228.402344 184.101562 " fill-opacity="1" fill-rule="nonzero"/><path fill="#faea58" d="M 198.390625 187.898438 L 176.941406 187.898438 L 176.941406 180.304688 L 198.390625 180.304688 L 198.390625 187.898438 " fill-opacity="1" fill-rule="nonzero"/><g clip-path="url(#id1)"><path fill="#bbbab8" d="M 228.402344 117.648438 C 228.402344 111.097656 223.078125 105.789062 216.507812 105.789062 L 158.824219 105.789062 C 152.253906 105.789062 146.929688 111.097656 146.929688 117.648438 L 146.929688 122.695312 C 146.929688 122.609375 146.933594 122.527344 146.9375 122.441406 C 146.933594 122.527344 146.929688 122.609375 146.929688 122.695312 L 146.929688 184.101562 L 152.070312 184.101562 L 152.070312 191.050781 C 152.070312 193.535156 154.089844 195.550781 156.585938 195.550781 L 158.90625 195.550781 C 161.402344 195.550781 163.421875 193.535156 163.421875 191.050781 L 163.421875 184.101562 L 176.941406 184.101562 L 176.941406 187.898438 L 198.390625 187.898438 L 198.390625 184.101562 L 212.449219 184.101562 L 212.449219 191.050781 C 212.449219 193.535156 214.472656 195.550781 216.964844 195.550781 L 219.285156 195.550781 C 221.78125 195.550781 223.804688 193.535156 223.804688 191.050781 L 223.804688 184.101562 L 228.402344 184.101562 Z M 247.164062 140.265625 C 247.164062 186.269531 192.84375 227.429688 188.261719 230.820312 C 188.058594 230.96875 187.859375 231.113281 187.667969 231.226562 C 187.5 231.136719 187.289062 230.980469 187.117188 230.851562 C 182.847656 227.699219 128.171875 186.417969 128.171875 140.265625 C 128.171875 107.660156 154.679688 81.230469 187.378906 81.230469 C 187.476562 81.230469 187.570312 81.234375 187.667969 81.234375 C 187.761719 81.234375 187.855469 81.230469 187.953125 81.230469 C 220.652344 81.230469 247.164062 107.660156 247.164062 140.265625 Z M 186.8125 131.917969 L 177.140625 144.738281 L 183.703125 144.738281 L 186.8125 140.617188 Z M 189.707031 136.777344 L 206.886719 114.003906 L 200.324219 114.003906 L 189.707031 128.078125 Z M 218.007812 114.339844 L 195.078125 144.738281 L 198.359375 144.738281 L 220.769531 115.027344 C 219.894531 114.691406 218.96875 114.460938 218.007812 114.339844 Z M 228.402344 170.976562 L 218.125 170.976562 L 218.125 176.03125 L 228.402344 176.03125 Z M 157.207031 176.03125 L 146.929688 176.03125 L 146.929688 170.976562 L 157.207031 170.976562 L 157.207031 176.03125 " fill-opacity="1" fill-rule="nonzero"/></g><g fill="#255c82" fill-opacity="1"><g transform="translate(106.269908, 259.642759)"><g><path d="M 1.8125 0 L 1.8125 -21.15625 L 11.53125 -21.15625 C 12.5625 -21.15625 13.515625 -20.941406 14.390625 -20.515625 C 15.265625 -20.085938 16.015625 -19.53125 16.640625 -18.84375 C 17.265625 -18.15625 17.753906 -17.367188 18.109375 -16.484375 C 18.472656 -15.609375 18.65625 -14.722656 18.65625 -13.828125 C 18.65625 -12.597656 18.382812 -11.453125 17.84375 -10.390625 C 17.3125 -9.328125 16.566406 -8.457031 15.609375 -7.78125 L 20.375 0 L 13.828125 0 L 9.796875 -6.5 L 7.625 -6.5 L 7.625 0 Z M 7.625 -11.5625 L 11.296875 -11.5625 C 11.648438 -11.5625 11.976562 -11.757812 12.28125 -12.15625 C 12.59375 -12.550781 12.75 -13.109375 12.75 -13.828125 C 12.75 -14.554688 12.570312 -15.113281 12.21875 -15.5 C 11.863281 -15.894531 11.503906 -16.09375 11.140625 -16.09375 L 7.625 -16.09375 Z M 7.625 -11.5625 "/></g></g></g><g fill="#255c82" fill-opacity="1"><g transform="translate(128.763876, 259.642759)"><g><path d="M 10.78125 0.171875 C 9.269531 0.171875 7.894531 -0.132812 6.65625 -0.75 C 5.414062 -1.363281 4.351562 -2.171875 3.46875 -3.171875 C 2.582031 -4.171875 1.894531 -5.316406 1.40625 -6.609375 C 0.925781 -7.898438 0.6875 -9.234375 0.6875 -10.609375 C 0.6875 -11.992188 0.9375 -13.332031 1.4375 -14.625 C 1.945312 -15.914062 2.660156 -17.050781 3.578125 -18.03125 C 4.492188 -19.019531 5.570312 -19.804688 6.8125 -20.390625 C 8.050781 -20.984375 9.414062 -21.28125 10.90625 -21.28125 C 12.414062 -21.28125 13.789062 -20.96875 15.03125 -20.34375 C 16.269531 -19.726562 17.332031 -18.914062 18.21875 -17.90625 C 19.101562 -16.894531 19.785156 -15.742188 20.265625 -14.453125 C 20.742188 -13.160156 20.984375 -11.835938 20.984375 -10.484375 C 20.984375 -9.097656 20.726562 -7.765625 20.21875 -6.484375 C 19.707031 -5.203125 19.003906 -4.066406 18.109375 -3.078125 C 17.222656 -2.097656 16.148438 -1.3125 14.890625 -0.71875 C 13.640625 -0.125 12.269531 0.171875 10.78125 0.171875 Z M 6.578125 -10.546875 C 6.578125 -9.828125 6.660156 -9.132812 6.828125 -8.46875 C 7.003906 -7.8125 7.269531 -7.222656 7.625 -6.703125 C 7.988281 -6.179688 8.4375 -5.757812 8.96875 -5.4375 C 9.5 -5.125 10.125 -4.96875 10.84375 -4.96875 C 11.582031 -4.96875 12.21875 -5.128906 12.75 -5.453125 C 13.289062 -5.785156 13.726562 -6.210938 14.0625 -6.734375 C 14.40625 -7.265625 14.660156 -7.867188 14.828125 -8.546875 C 14.992188 -9.222656 15.078125 -9.910156 15.078125 -10.609375 C 15.078125 -11.328125 14.988281 -12.015625 14.8125 -12.671875 C 14.632812 -13.335938 14.367188 -13.925781 14.015625 -14.4375 C 13.671875 -14.945312 13.226562 -15.351562 12.6875 -15.65625 C 12.15625 -15.96875 11.53125 -16.125 10.8125 -16.125 C 10.082031 -16.125 9.453125 -15.960938 8.921875 -15.640625 C 8.398438 -15.328125 7.960938 -14.90625 7.609375 -14.375 C 7.265625 -13.851562 7.003906 -13.257812 6.828125 -12.59375 C 6.660156 -11.925781 6.578125 -11.242188 6.578125 -10.546875 Z M 6.578125 -10.546875 "/></g></g></g><g fill="#255c82" fill-opacity="1"><g transform="translate(152.479344, 259.642759)"><g><path d="M 11.03125 -4.96875 C 11.695312 -4.96875 12.269531 -5.117188 12.75 -5.421875 C 13.226562 -5.722656 13.613281 -6.113281 13.90625 -6.59375 C 14.207031 -7.082031 14.425781 -7.644531 14.5625 -8.28125 C 14.707031 -8.914062 14.78125 -9.582031 14.78125 -10.28125 L 14.78125 -21.15625 L 20.59375 -21.15625 L 20.59375 -10.28125 C 20.59375 -8.8125 20.398438 -7.4375 20.015625 -6.15625 C 19.640625 -4.875 19.054688 -3.765625 18.265625 -2.828125 C 17.472656 -1.898438 16.472656 -1.164062 15.265625 -0.625 C 14.066406 -0.09375 12.65625 0.171875 11.03125 0.171875 C 9.332031 0.171875 7.882812 -0.109375 6.6875 -0.671875 C 5.488281 -1.234375 4.5 -1.988281 3.71875 -2.9375 C 2.945312 -3.894531 2.378906 -5.003906 2.015625 -6.265625 C 1.660156 -7.535156 1.484375 -8.875 1.484375 -10.28125 L 1.484375 -21.15625 L 7.296875 -21.15625 L 7.296875 -10.28125 C 7.296875 -9.582031 7.363281 -8.910156 7.5 -8.265625 C 7.644531 -7.617188 7.863281 -7.050781 8.15625 -6.5625 C 8.457031 -6.082031 8.84375 -5.695312 9.3125 -5.40625 C 9.78125 -5.113281 10.351562 -4.96875 11.03125 -4.96875 Z M 11.03125 -4.96875 "/></g></g></g><g fill="#255c82" fill-opacity="1"><g transform="translate(176.611901, 259.642759)"><g><path d="M 18.296875 -16.09375 L 12.21875 -16.09375 L 12.21875 0 L 6.40625 0 L 6.40625 -16.09375 L 0.296875 -16.09375 L 0.296875 -21.15625 L 18.296875 -21.15625 Z M 18.296875 -16.09375 "/></g></g></g><g fill="#255c82" fill-opacity="1"><g transform="translate(197.258721, 259.642759)"><g><path d="M 16.890625 -5.0625 L 16.890625 0 L 1.8125 0 L 1.8125 -21.15625 L 16.625 -21.15625 L 16.625 -16.09375 L 7.625 -16.09375 L 7.625 -13.109375 L 15.3125 -13.109375 L 15.3125 -8.40625 L 7.625 -8.40625 L 7.625 -5.0625 Z M 16.890625 -5.0625 "/></g></g></g><g fill="#255c82" fill-opacity="1"><g transform="translate(217.10113, 259.642759)"><g><path d="M 14.625 -14.25 C 14.03125 -14.601562 13.414062 -14.921875 12.78125 -15.203125 C 12.25 -15.429688 11.648438 -15.648438 10.984375 -15.859375 C 10.316406 -16.066406 9.664062 -16.171875 9.03125 -16.171875 C 8.507812 -16.171875 8.09375 -16.09375 7.78125 -15.9375 C 7.476562 -15.78125 7.328125 -15.515625 7.328125 -15.140625 C 7.328125 -14.859375 7.414062 -14.628906 7.59375 -14.453125 C 7.769531 -14.273438 8.023438 -14.109375 8.359375 -13.953125 C 8.703125 -13.804688 9.117188 -13.660156 9.609375 -13.515625 C 10.097656 -13.378906 10.648438 -13.210938 11.265625 -13.015625 C 12.234375 -12.722656 13.109375 -12.394531 13.890625 -12.03125 C 14.679688 -11.675781 15.351562 -11.253906 15.90625 -10.765625 C 16.46875 -10.285156 16.894531 -9.695312 17.1875 -9 C 17.488281 -8.300781 17.640625 -7.457031 17.640625 -6.46875 C 17.640625 -5.195312 17.40625 -4.128906 16.9375 -3.265625 C 16.46875 -2.398438 15.847656 -1.707031 15.078125 -1.1875 C 14.316406 -0.675781 13.453125 -0.304688 12.484375 -0.078125 C 11.523438 0.148438 10.5625 0.265625 9.59375 0.265625 C 8.820312 0.265625 8.023438 0.203125 7.203125 0.078125 C 6.390625 -0.0351562 5.582031 -0.203125 4.78125 -0.421875 C 3.976562 -0.640625 3.203125 -0.894531 2.453125 -1.1875 C 1.710938 -1.488281 1.023438 -1.828125 0.390625 -2.203125 L 2.890625 -7.296875 C 3.585938 -6.859375 4.3125 -6.472656 5.0625 -6.140625 C 5.695312 -5.835938 6.414062 -5.566406 7.21875 -5.328125 C 8.03125 -5.085938 8.851562 -4.96875 9.6875 -4.96875 C 10.320312 -4.96875 10.757812 -5.050781 11 -5.21875 C 11.25 -5.394531 11.375 -5.625 11.375 -5.90625 C 11.375 -6.195312 11.25 -6.445312 11 -6.65625 C 10.757812 -6.863281 10.421875 -7.046875 9.984375 -7.203125 C 9.546875 -7.367188 9.039062 -7.53125 8.46875 -7.6875 C 7.90625 -7.84375 7.304688 -8.03125 6.671875 -8.25 C 5.742188 -8.570312 4.941406 -8.914062 4.265625 -9.28125 C 3.585938 -9.644531 3.03125 -10.0625 2.59375 -10.53125 C 2.15625 -11 1.832031 -11.53125 1.625 -12.125 C 1.414062 -12.71875 1.3125 -13.40625 1.3125 -14.1875 C 1.3125 -15.351562 1.523438 -16.382812 1.953125 -17.28125 C 2.378906 -18.175781 2.957031 -18.921875 3.6875 -19.515625 C 4.425781 -20.109375 5.265625 -20.554688 6.203125 -20.859375 C 7.148438 -21.171875 8.148438 -21.328125 9.203125 -21.328125 C 9.984375 -21.328125 10.738281 -21.253906 11.46875 -21.109375 C 12.207031 -20.960938 12.914062 -20.773438 13.59375 -20.546875 C 14.28125 -20.316406 14.921875 -20.066406 15.515625 -19.796875 C 16.117188 -19.523438 16.660156 -19.273438 17.140625 -19.046875 Z M 14.625 -14.25 "/></g></g></g><g fill="#255c82" fill-opacity="1"><g transform="translate(237.539381, 259.642759)"><g/></g></g><g fill="#255c82" fill-opacity="1"><g transform="translate(246.298871, 259.642759)"><g><path d="M 15.078125 0 L 13.9375 -1.1875 C 13.082031 -0.675781 12.191406 -0.300781 11.265625 -0.0625 C 10.347656 0.175781 9.421875 0.296875 8.484375 0.296875 C 7.253906 0.296875 6.175781 0.0976562 5.25 -0.296875 C 4.332031 -0.691406 3.5625 -1.207031 2.9375 -1.84375 C 2.3125 -2.476562 1.835938 -3.195312 1.515625 -4 C 1.203125 -4.8125 1.046875 -5.625 1.046875 -6.4375 C 1.046875 -7.644531 1.335938 -8.691406 1.921875 -9.578125 C 2.503906 -10.460938 3.203125 -11.234375 4.015625 -11.890625 C 3.378906 -12.660156 2.929688 -13.347656 2.671875 -13.953125 C 2.421875 -14.566406 2.296875 -15.238281 2.296875 -15.96875 C 2.296875 -16.820312 2.453125 -17.59375 2.765625 -18.28125 C 3.085938 -18.96875 3.519531 -19.535156 4.0625 -19.984375 C 4.613281 -20.441406 5.265625 -20.796875 6.015625 -21.046875 C 6.773438 -21.296875 7.597656 -21.421875 8.484375 -21.421875 C 9.265625 -21.421875 10.023438 -21.328125 10.765625 -21.140625 C 11.515625 -20.953125 12.179688 -20.65625 12.765625 -20.25 C 13.347656 -19.84375 13.816406 -19.316406 14.171875 -18.671875 C 14.535156 -18.023438 14.71875 -17.242188 14.71875 -16.328125 C 14.71875 -15.253906 14.46875 -14.289062 13.96875 -13.4375 C 13.476562 -12.582031 12.816406 -11.796875 11.984375 -11.078125 L 14.421875 -8.484375 C 14.640625 -9.046875 14.804688 -9.648438 14.921875 -10.296875 C 15.046875 -10.941406 15.109375 -11.640625 15.109375 -12.390625 L 19.671875 -12.390625 C 19.648438 -10.859375 19.46875 -9.484375 19.125 -8.265625 C 18.789062 -7.046875 18.335938 -5.945312 17.765625 -4.96875 L 22.5 0 Z M 9.09375 -4.109375 C 9.6875 -4.109375 10.269531 -4.238281 10.84375 -4.5 L 7.484375 -8.109375 C 6.804688 -7.546875 6.46875 -6.988281 6.46875 -6.4375 C 6.46875 -6.21875 6.507812 -5.972656 6.59375 -5.703125 C 6.6875 -5.429688 6.835938 -5.175781 7.046875 -4.9375 C 7.253906 -4.707031 7.523438 -4.507812 7.859375 -4.34375 C 8.203125 -4.1875 8.613281 -4.109375 9.09375 -4.109375 Z M 7.421875 -16.203125 C 7.421875 -15.953125 7.492188 -15.726562 7.640625 -15.53125 C 7.785156 -15.34375 8.039062 -15.082031 8.40625 -14.75 C 8.800781 -15.03125 9.085938 -15.273438 9.265625 -15.484375 C 9.441406 -15.691406 9.53125 -15.953125 9.53125 -16.265625 C 9.53125 -16.609375 9.4375 -16.867188 9.25 -17.046875 C 9.0625 -17.222656 8.804688 -17.3125 8.484375 -17.3125 C 8.148438 -17.3125 7.890625 -17.207031 7.703125 -17 C 7.515625 -16.789062 7.421875 -16.523438 7.421875 -16.203125 Z M 7.421875 -16.203125 "/></g></g></g><g fill="#676b6f" fill-opacity="1"><g transform="translate(113.606649, 275.582381)"><g/></g></g><g fill="#676b6f" fill-opacity="1"><g transform="translate(118.740619, 275.582381)"><g><path d="M 0.390625 -2.71875 L 0.390625 -4.328125 L 3.84375 -4.328125 L 3.84375 -2.71875 Z M 0.390625 -2.71875 "/></g></g></g><g fill="#676b6f" fill-opacity="1"><g transform="translate(124.691456, 275.582381)"><g/></g></g><g fill="#676b6f" fill-opacity="1"><g transform="translate(129.827275, 275.582381)"><g><path d="M 8.96875 -4.78125 C 8.96875 -3.238281 8.523438 -2.054688 7.640625 -1.234375 C 6.765625 -0.410156 5.5 0 3.84375 0 L 1.1875 0 L 1.1875 -9.375 L 4.125 -9.375 C 5.65625 -9.375 6.84375 -8.96875 7.6875 -8.15625 C 8.539062 -7.351562 8.96875 -6.226562 8.96875 -4.78125 Z M 6.890625 -4.734375 C 6.890625 -6.742188 6.003906 -7.75 4.234375 -7.75 L 3.171875 -7.75 L 3.171875 -1.640625 L 4.015625 -1.640625 C 5.929688 -1.640625 6.890625 -2.671875 6.890625 -4.734375 Z M 6.890625 -4.734375 "/></g></g></g><g fill="#676b6f" fill-opacity="1"><g transform="translate(141.277878, 275.582381)"><g><path d="M 6.578125 0 L 1.1875 0 L 1.1875 -9.375 L 6.578125 -9.375 L 6.578125 -7.75 L 3.171875 -7.75 L 3.171875 -5.6875 L 6.34375 -5.6875 L 6.34375 -4.0625 L 3.171875 -4.0625 L 3.171875 -1.640625 L 6.578125 -1.640625 Z M 6.578125 0 "/></g></g></g><g fill="#676b6f" fill-opacity="1"><g transform="translate(150.360437, 275.582381)"><g><path d="M 6.71875 -2.609375 C 6.71875 -1.753906 6.410156 -1.082031 5.796875 -0.59375 C 5.191406 -0.113281 4.347656 0.125 3.265625 0.125 C 2.265625 0.125 1.378906 -0.0625 0.609375 -0.4375 L 0.609375 -2.28125 C 1.234375 -2 1.765625 -1.800781 2.203125 -1.6875 C 2.648438 -1.570312 3.050781 -1.515625 3.40625 -1.515625 C 3.84375 -1.515625 4.175781 -1.597656 4.40625 -1.765625 C 4.644531 -1.929688 4.765625 -2.179688 4.765625 -2.515625 C 4.765625 -2.691406 4.710938 -2.851562 4.609375 -3 C 4.503906 -3.144531 4.351562 -3.28125 4.15625 -3.40625 C 3.957031 -3.539062 3.550781 -3.753906 2.9375 -4.046875 C 2.363281 -4.316406 1.929688 -4.578125 1.640625 -4.828125 C 1.359375 -5.078125 1.132812 -5.363281 0.96875 -5.6875 C 0.800781 -6.019531 0.71875 -6.40625 0.71875 -6.84375 C 0.71875 -7.675781 1 -8.328125 1.5625 -8.796875 C 2.125 -9.273438 2.898438 -9.515625 3.890625 -9.515625 C 4.378906 -9.515625 4.84375 -9.457031 5.28125 -9.34375 C 5.726562 -9.226562 6.191406 -9.066406 6.671875 -8.859375 L 6.03125 -7.3125 C 5.53125 -7.507812 5.113281 -7.648438 4.78125 -7.734375 C 4.457031 -7.816406 4.140625 -7.859375 3.828125 -7.859375 C 3.453125 -7.859375 3.160156 -7.769531 2.953125 -7.59375 C 2.753906 -7.414062 2.65625 -7.1875 2.65625 -6.90625 C 2.65625 -6.726562 2.695312 -6.570312 2.78125 -6.4375 C 2.863281 -6.3125 2.992188 -6.1875 3.171875 -6.0625 C 3.347656 -5.945312 3.765625 -5.734375 4.421875 -5.421875 C 5.304688 -4.992188 5.910156 -4.566406 6.234375 -4.140625 C 6.554688 -3.722656 6.71875 -3.210938 6.71875 -2.609375 Z M 6.71875 -2.609375 "/></g></g></g><g fill="#676b6f" fill-opacity="1"><g transform="translate(159.321063, 275.582381)"><g><path d="M 4.796875 0 L 2.8125 0 L 2.8125 -7.71875 L 0.265625 -7.71875 L 0.265625 -9.375 L 7.34375 -9.375 L 7.34375 -7.71875 L 4.796875 -7.71875 Z M 4.796875 0 "/></g></g></g><g fill="#676b6f" fill-opacity="1"><g transform="translate(168.653905, 275.582381)"><g><path d="M 1.1875 0 L 1.1875 -9.375 L 3.171875 -9.375 L 3.171875 0 Z M 1.1875 0 "/></g></g></g><g fill="#676b6f" fill-opacity="1"><g transform="translate(174.726675, 275.582381)"><g><path d="M 9.5 0 L 6.96875 0 L 2.890625 -7.09375 L 2.84375 -7.09375 C 2.914062 -5.84375 2.953125 -4.953125 2.953125 -4.421875 L 2.953125 0 L 1.1875 0 L 1.1875 -9.375 L 3.6875 -9.375 L 7.765625 -2.359375 L 7.8125 -2.359375 C 7.75 -3.578125 7.71875 -4.4375 7.71875 -4.9375 L 7.71875 -9.375 L 9.5 -9.375 Z M 9.5 0 "/></g></g></g><g fill="#676b6f" fill-opacity="1"><g transform="translate(187.133482, 275.582381)"><g><path d="M 6.921875 0 L 6.25 -2.234375 L 2.828125 -2.234375 L 2.140625 0 L 0 0 L 3.3125 -9.421875 L 5.75 -9.421875 L 9.0625 0 Z M 5.765625 -3.90625 C 5.140625 -5.925781 4.785156 -7.066406 4.703125 -7.328125 C 4.628906 -7.597656 4.570312 -7.8125 4.53125 -7.96875 C 4.394531 -7.414062 3.992188 -6.0625 3.328125 -3.90625 Z M 5.765625 -3.90625 "/></g></g></g><g fill="#676b6f" fill-opacity="1"><g transform="translate(197.923083, 275.582381)"><g><path d="M 4.796875 0 L 2.8125 0 L 2.8125 -7.71875 L 0.265625 -7.71875 L 0.265625 -9.375 L 7.34375 -9.375 L 7.34375 -7.71875 L 4.796875 -7.71875 Z M 4.796875 0 "/></g></g></g><g fill="#676b6f" fill-opacity="1"><g transform="translate(207.25592, 275.582381)"><g><path d="M 1.1875 0 L 1.1875 -9.375 L 3.171875 -9.375 L 3.171875 0 Z M 1.1875 0 "/></g></g></g><g fill="#676b6f" fill-opacity="1"><g transform="translate(213.328685, 275.582381)"><g><path d="M 9.6875 -4.703125 C 9.6875 -3.148438 9.300781 -1.957031 8.53125 -1.125 C 7.769531 -0.289062 6.671875 0.125 5.234375 0.125 C 3.796875 0.125 2.691406 -0.289062 1.921875 -1.125 C 1.148438 -1.957031 0.765625 -3.15625 0.765625 -4.71875 C 0.765625 -6.28125 1.148438 -7.472656 1.921875 -8.296875 C 2.691406 -9.117188 3.796875 -9.53125 5.234375 -9.53125 C 6.679688 -9.53125 7.785156 -9.113281 8.546875 -8.28125 C 9.304688 -7.445312 9.6875 -6.253906 9.6875 -4.703125 Z M 2.84375 -4.703125 C 2.84375 -3.648438 3.039062 -2.859375 3.4375 -2.328125 C 3.84375 -1.804688 4.441406 -1.546875 5.234375 -1.546875 C 6.816406 -1.546875 7.609375 -2.597656 7.609375 -4.703125 C 7.609375 -6.816406 6.816406 -7.875 5.234375 -7.875 C 4.453125 -7.875 3.859375 -7.609375 3.453125 -7.078125 C 3.046875 -6.546875 2.84375 -5.753906 2.84375 -4.703125 Z M 2.84375 -4.703125 "/></g></g></g><g fill="#676b6f" fill-opacity="1"><g transform="translate(225.510876, 275.582381)"><g><path d="M 9.5 0 L 6.96875 0 L 2.890625 -7.09375 L 2.84375 -7.09375 C 2.914062 -5.84375 2.953125 -4.953125 2.953125 -4.421875 L 2.953125 0 L 1.1875 0 L 1.1875 -9.375 L 3.6875 -9.375 L 7.765625 -2.359375 L 7.8125 -2.359375 C 7.75 -3.578125 7.71875 -4.4375 7.71875 -4.9375 L 7.71875 -9.375 L 9.5 -9.375 Z M 9.5 0 "/></g></g></g><g fill="#676b6f" fill-opacity="1"><g transform="translate(237.917678, 275.582381)"><g><path d="M 6.71875 -2.609375 C 6.71875 -1.753906 6.410156 -1.082031 5.796875 -0.59375 C 5.191406 -0.113281 4.347656 0.125 3.265625 0.125 C 2.265625 0.125 1.378906 -0.0625 0.609375 -0.4375 L 0.609375 -2.28125 C 1.234375 -2 1.765625 -1.800781 2.203125 -1.6875 C 2.648438 -1.570312 3.050781 -1.515625 3.40625 -1.515625 C 3.84375 -1.515625 4.175781 -1.597656 4.40625 -1.765625 C 4.644531 -1.929688 4.765625 -2.179688 4.765625 -2.515625 C 4.765625 -2.691406 4.710938 -2.851562 4.609375 -3 C 4.503906 -3.144531 4.351562 -3.28125 4.15625 -3.40625 C 3.957031 -3.539062 3.550781 -3.753906 2.9375 -4.046875 C 2.363281 -4.316406 1.929688 -4.578125 1.640625 -4.828125 C 1.359375 -5.078125 1.132812 -5.363281 0.96875 -5.6875 C 0.800781 -6.019531 0.71875 -6.40625 0.71875 -6.84375 C 0.71875 -7.675781 1 -8.328125 1.5625 -8.796875 C 2.125 -9.273438 2.898438 -9.515625 3.890625 -9.515625 C 4.378906 -9.515625 4.84375 -9.457031 5.28125 -9.34375 C 5.726562 -9.226562 6.191406 -9.066406 6.671875 -8.859375 L 6.03125 -7.3125 C 5.53125 -7.507812 5.113281 -7.648438 4.78125 -7.734375 C 4.457031 -7.816406 4.140625 -7.859375 3.828125 -7.859375 C 3.453125 -7.859375 3.160156 -7.769531 2.953125 -7.59375 C 2.753906 -7.414062 2.65625 -7.1875 2.65625 -6.90625 C 2.65625 -6.726562 2.695312 -6.570312 2.78125 -6.4375 C 2.863281 -6.3125 2.992188 -6.1875 3.171875 -6.0625 C 3.347656 -5.945312 3.765625 -5.734375 4.421875 -5.421875 C 5.304688 -4.992188 5.910156 -4.566406 6.234375 -4.140625 C 6.554688 -3.722656 6.71875 -3.210938 6.71875 -2.609375 Z M 6.71875 -2.609375 "/></g></g></g><g fill="#676b6f" fill-opacity="1"><g transform="translate(246.878302, 275.582381)"><g/></g></g><g fill="#676b6f" fill-opacity="1"><g transform="translate(252.014117, 275.582381)"><g><path d="M 0.390625 -2.71875 L 0.390625 -4.328125 L 3.84375 -4.328125 L 3.84375 -2.71875 Z M 0.390625 -2.71875 "/></g></g></g><g fill="#676b6f" fill-opacity="1"><g transform="translate(257.963638, 275.582381)"><g/></g></g></svg>